# xmcd
#
# Track frame offsets: 
#        150
#        20300
#        39640
#        59810
#        85340
#        106435
#        126752
#        151307
#        172492
#        197052
#        215732
#
# Disc length: 3190 seconds
#
# Revision: 0
# Processed by: cddbd v1.5.1PL2 Copyright (c) Steve Scherf et al.
# Submitted via: ExactAudioCopy v0.95b3
#
DISCID=a40c740b
DTITLE=Joey Edwin - Unless U Fall
DYEAR=2001
DGENRE=Country
TTITLE0=See Right Thru
TTITLE1=Hot-n-Cold
TTITLE2=In For The Whole Ride
TTITLE3=Let Go
TTITLE4=Cloud My Scene
TTITLE5=No One Left
TTITLE6=Lost Out On Love
TTITLE7=U-Turned
TTITLE8=Island Of Blue
TTITLE9=Unless U Fall
TTITLE10=Come So Close
EXTD=
EXTT0=
EXTT1=
EXTT2=
EXTT3=
EXTT4=
EXTT5=
EXTT6=
EXTT7=
EXTT8=
EXTT9=
EXTT10=
PLAYORDER=
